<svg id="Layer_1" data-name="Layer 1" xmlns="http://www.w3.org/2000/svg" viewBox="0 0 815 250"><defs><style>.cls-1{fill:#e85a50;}.cls-2{fill:#e44034;}.cls-3{fill:#7476a5;}.cls-4{fill:#636599;}.cls-5{fill:#469f9e;}.cls-6{fill:#5bb7b6;}.cls-7,.cls-8{fill:#fff;}.cls-8{font-size:12px;font-family:MyriadPro-Regular, Myriad Pro;}.cls-9{letter-spacing:-0.01em;}.cls-10{letter-spacing:0.01em;}.cls-11{letter-spacing:0em;}.cls-12{letter-spacing:-0.01em;}.cls-13{letter-spacing:0em;}.cls-14{letter-spacing:-0.01em;}.cls-15{letter-spacing:-0.01em;}.cls-16{letter-spacing:-0.01em;}.cls-17{letter-spacing:-0.01em;}.cls-18{letter-spacing:-0.01em;}.cls-19{letter-spacing:0.02em;}.cls-20{letter-spacing:-0.01em;}.cls-21{letter-spacing:0em;}.cls-22{letter-spacing:0.02em;}.cls-23{letter-spacing:-0.04em;}.cls-24{letter-spacing:0.01em;}.cls-25{letter-spacing:-0.01em;}.cls-26{letter-spacing:-0.01em;}.cls-27{letter-spacing:0em;}.cls-28{letter-spacing:-0.01em;}.cls-29{letter-spacing:-0.01em;}.cls-30{letter-spacing:-0.01em;}.cls-31{letter-spacing:-0.01em;}.cls-32{letter-spacing:0.03em;}.cls-33{letter-spacing:0.01em;}.cls-34{letter-spacing:-0.01em;}.cls-35{letter-spacing:0em;}.cls-36{letter-spacing:0em;}.cls-37{letter-spacing:0em;}</style></defs><title>theFunnel</title><path class="cls-1" d="M99.69,164.35c1,6.48,33.14,10.7,70.42,10.7s67.71-4,69.76-10.7l-20.32,45.83c-2,7.2-21.74,11.25-49.29,11.25s-47.47-5.81-49.86-11.78Z"/><ellipse class="cls-2" cx="169.78" cy="164.35" rx="70.09" ry="10.97"/><path class="cls-3" d="M78.33,106c1.45,10.39,42.69,16.69,92.06,16.69s87.15-6,91.44-16.46l-19.68,47c-2.87,7.36-31.65,11.49-71.76,11.49s-69.11-5.93-72.59-12Z"/><ellipse class="cls-4" cx="169.97" cy="106.57" rx="92.04" ry="16.42"/><ellipse class="cls-5" cx="169.97" cy="46.71" rx="114.46" ry="18.63"/><path class="cls-6" d="M55.78,47.14c0,9.72,51.8,17.8,114.72,17.8s113.94-7.88,113.94-17.6L263.07,94.41C259.38,102.52,221.63,112,170.5,112s-89.14-11.47-93.62-18.2Z"/><polygon class="cls-6" points="280.61 97.38 686.19 97.38 706.37 45.95 300.79 45.95 280.61 97.38"/><polygon class="cls-3" points="257.67 155.53 663.24 155.53 681.44 110.83 275.87 110.83 257.67 155.53"/><polygon class="cls-1" points="233.53 214.09 639.11 214.09 657.31 169.38 251.73 169.38 233.53 214.09"/><path class="cls-7" d="M119.57,91.83a5.92,5.92,0,0,0,3,1c1.71.1,2.76-.74,2.84-2s-.61-1.94-2.3-2.68c-2-.88-3.3-2-3.18-3.82.12-2,1.87-3.37,4.35-3.23a5.85,5.85,0,0,1,2.8.79l-.53,1.32a5.1,5.1,0,0,0-2.4-.74c-1.75-.1-2.48.9-2.53,1.77-.08,1.19.67,1.83,2.41,2.61,2.13,1,3.19,2.06,3.09,3.94s-1.68,3.61-4.75,3.43a6.83,6.83,0,0,1-3.27-1C119.26,92.65,119.37,92.38,119.57,91.83Z"/><path class="cls-7" d="M137.9,90.1a4.5,4.5,0,0,1-4.85,4.68,4.38,4.38,0,0,1-4.24-4.94c.16-3.07,2.27-4.77,4.83-4.65A4.38,4.38,0,0,1,137.9,90.1Zm-7.38-.23c-.1,2,1,3.59,2.67,3.66s2.9-1.37,3-3.44c.07-1.56-.64-3.56-2.62-3.65S130.61,88.13,130.52,89.87Z"/><path class="cls-7" d="M146.54,94.73a6.37,6.37,0,0,1-2.7.45,4.38,4.38,0,0,1-4.48-4.85,4.71,4.71,0,0,1,5.15-4.71,5.66,5.66,0,0,1,2.31.54c-.16.51-.25.77-.42,1.28a4,4,0,0,0-1.94-.49,3.46,3.46,0,0,0-.27,6.91,4.78,4.78,0,0,0,2.1-.4Z"/><path class="cls-7" d="M150.69,83.39a1,1,0,0,1-2.07,0,1,1,0,0,1,1.07-1A1,1,0,0,1,150.69,83.39Zm-2.16,11.73c.09-3.68.14-5.51.23-9.19l1.68,0c-.08,3.68-.13,5.52-.21,9.19Z"/><path class="cls-7" d="M158.23,95.31c0-.46-.07-.7-.12-1.16h-.05a3.51,3.51,0,0,1-2.89,1.32,2.63,2.63,0,0,1-2.8-2.69c0-2.22,2.06-3.39,5.65-3.33v-.18A1.9,1.9,0,0,0,156,87.11a4.53,4.53,0,0,0-2.42.64c-.15-.45-.22-.67-.37-1.11a5.81,5.81,0,0,1,3.06-.76c2.83,0,3.49,2,3.47,3.8,0,1.38,0,2.07,0,3.44a12.57,12.57,0,0,0,.13,2.21Zm-.18-4.7c-1.85-.06-4,.23-4,2a1.5,1.5,0,0,0,1.57,1.63,2.31,2.31,0,0,0,2.28-1.51,1.66,1.66,0,0,0,.1-.53Z"/><path class="cls-7" d="M162.48,81.87h1.67c0,5.39,0,8.09-.08,13.49l-1.7,0C162.41,90,162.44,87.26,162.48,81.87Z"/><path class="cls-7" d="M182,89.65c-.13-1.79-.28-3.93-.28-5.53h-.06c-.41,1.51-.92,3.11-1.55,4.89-.88,2.5-1.32,3.75-2.21,6.24l-1.28,0c-.86-2.44-1.3-3.65-2.15-6.08-.63-1.8-1.15-3.45-1.52-5h0c0,1.59-.11,3.74-.22,5.66-.13,2.2-.19,3.3-.32,5.49h-1.61c.36-5.12.53-7.69.87-12.81h2.11c.89,2.47,1.34,3.71,2.24,6.18.55,1.57,1,3,1.35,4.29h.06c.31-1.29.76-2.7,1.32-4.32.88-2.49,1.33-3.74,2.2-6.23l2.11,0c.41,5.11.62,7.67,1.05,12.78l-1.65,0C182.23,93,182.15,91.89,182,89.65Z"/><path class="cls-7" d="M187.54,90.86A3,3,0,0,0,190.82,94a6,6,0,0,0,2.57-.55c.13.47.2.71.33,1.19a7.65,7.65,0,0,1-3.09.66,4.29,4.29,0,0,1-4.71-4.52c-.06-2.77,1.54-5,4.23-5.07,3-.08,3.91,2.53,4,4.22a7.46,7.46,0,0,1,0,.78C191.46,90.76,190.16,90.8,187.54,90.86Zm4.93-1.33a2.4,2.4,0,0,0-2.42-2.65,2.8,2.8,0,0,0-2.52,2.79Z"/><path class="cls-7" d="M203.85,81.1l.5,11.1c0,.82.1,1.75.19,2.37l-1.53.07-.15-1.59h0A3.46,3.46,0,0,1,199.72,95c-2.27.09-4.06-1.74-4.17-4.52-.11-3,1.73-5,4-5.09a3.13,3.13,0,0,1,2.85,1.29h0c-.1-2.19-.14-3.29-.24-5.49Zm-1.32,8.1a2.83,2.83,0,0,0-.11-.7,2.47,2.47,0,0,0-2.51-1.83c-1.74.07-2.72,1.62-2.65,3.65.07,1.86,1.05,3.37,2.88,3.3a2.55,2.55,0,0,0,2.41-2.1,2.43,2.43,0,0,0,0-.72Z"/><path class="cls-7" d="M208.57,82.59a1,1,0,0,1-2.07.1,1,1,0,0,1,1-1.1A1,1,0,0,1,208.57,82.59Zm-1.29,11.85c-.18-3.67-.27-5.51-.44-9.18l1.68-.08c.18,3.67.28,5.51.46,9.18Z"/><path class="cls-7" d="M217,93.91c-.08-.46-.12-.69-.21-1.15h-.05a3.52,3.52,0,0,1-2.78,1.53,2.64,2.64,0,0,1-3-2.48c-.12-2.22,1.81-3.53,5.4-3.73l0-.19a1.9,1.9,0,0,0-2.23-2,4.71,4.71,0,0,0-2.37.82c-.18-.43-.26-.65-.44-1.08a5.81,5.81,0,0,1,3-1c2.82-.16,3.63,1.71,3.75,3.54.08,1.38.12,2.06.21,3.44a13.38,13.38,0,0,0,.29,2.19Zm-.54-4.67c-1.84.08-3.92.52-3.82,2.3a1.49,1.49,0,0,0,1.69,1.5,2.32,2.32,0,0,0,2.17-1.67,1.92,1.92,0,0,0,.06-.53Z"/><path class="cls-7" d="M103.22,145.05c-1-5.19-1.5-7.79-2.48-13l1.75.11c.44,2.62.67,3.93,1.13,6.56.28,1.61.54,3.23.69,4.47h0c.29-1.26.78-2.76,1.31-4.38.84-2.54,1.26-3.81,2.09-6.35l1.73.1c.48,2.62.72,3.94,1.21,6.57.28,1.53.54,3.07.67,4.43h0c.35-1.39.78-2.79,1.27-4.37.81-2.54,1.22-3.82,2-6.36l1.69.08c-1.7,5.05-2.56,7.57-4.29,12.61l-1.75-.1c-.51-2.69-.76-4-1.27-6.74a36.1,36.1,0,0,1-.6-4.22h0a40,40,0,0,1-1.23,4.11c-.88,2.62-1.33,3.93-2.22,6.55Z"/><path class="cls-7" d="M117.82,141.53a3,3,0,0,0,3,3.33,6,6,0,0,0,2.59-.36c.1.48.15.72.24,1.21a7.52,7.52,0,0,1-3.12.43,4.28,4.28,0,0,1-4.35-4.84c.13-2.77,1.88-4.87,4.57-4.75,3,.13,3.7,2.8,3.63,4.49a4.78,4.78,0,0,1-.09.77C121.73,141.71,120.43,141.65,117.82,141.53Zm5-1a2.38,2.38,0,0,0-2.21-2.81,2.77,2.77,0,0,0-2.7,2.6Z"/><path class="cls-7" d="M126.24,146.19c.06-.63.13-1.56.17-2.37.17-4.45.25-6.67.43-11.11l1.65.06c-.09,2.31-.13,3.47-.22,5.78h0a3.44,3.44,0,0,1,3.21-1.58c2.29.08,3.84,2,3.75,4.82-.11,3.27-2.25,4.85-4.33,4.78a3.33,3.33,0,0,1-3-1.84h-.06c0,.6-.08.91-.13,1.51Zm1.88-3.62a3.94,3.94,0,0,0,.06.61,2.6,2.6,0,0,0,2.46,2c1.77.06,2.87-1.33,2.94-3.44.06-1.84-.84-3.45-2.64-3.51a2.68,2.68,0,0,0-2.63,2,3,3,0,0,0-.12.68Z"/><path class="cls-7" d="M137.08,144.84a4.39,4.39,0,0,0,2.21.73c1.23,0,1.82-.56,1.84-1.32s-.45-1.26-1.68-1.73c-1.64-.64-2.41-1.57-2.38-2.67,0-1.49,1.28-2.66,3.26-2.61a4.67,4.67,0,0,1,2.26.62l-.45,1.21a3.59,3.59,0,0,0-1.88-.58c-1,0-1.56.53-1.58,1.21s.53,1.12,1.72,1.61c1.59.64,2.4,1.46,2.37,2.83,0,1.61-1.34,2.72-3.55,2.66a5.25,5.25,0,0,1-2.6-.7C136.8,145.6,136.9,145.35,137.08,144.84Z"/><path class="cls-7" d="M147,135a1,1,0,0,1-1.09,1,1,1,0,0,1-1-1.05,1,1,0,0,1,1.07-1A1,1,0,0,1,147,135Zm-2.12,11.73.2-9.19,1.68,0c-.08,3.67-.11,5.51-.19,9.19Z"/><path class="cls-7" d="M151.61,135l0,2.64,2.4,0,0,1.27-2.4,0c0,2-.05,3-.08,5,0,1.14.3,1.79,1.24,1.81a4.31,4.31,0,0,0,1-.1c0,.5,0,.75.06,1.25a4.12,4.12,0,0,1-1.5.21,2.44,2.44,0,0,1-1.82-.73,3.5,3.5,0,0,1-.61-2.41c0-2,.05-3,.08-5l-1.43,0,0-1.27,1.43,0,0-2.2Z"/><path class="cls-7" d="M156.63,142.65a3,3,0,0,0,3.15,3.22,6.18,6.18,0,0,0,2.58-.45l.28,1.2a7.49,7.49,0,0,1-3.1.54,4.28,4.28,0,0,1-4.52-4.68c0-2.77,1.7-4.93,4.39-4.91,3,0,3.8,2.67,3.8,4.36,0,.34-.05.6-.07.78Zm5-1.15a2.39,2.39,0,0,0-2.31-2.74,2.8,2.8,0,0,0-2.61,2.7Z"/><path class="cls-7" d="M167.93,147.77c2.16-5.51,3.22-8.26,5.32-13.78h1.29c-2.1,5.52-3.16,8.28-5.32,13.79Z"/><path class="cls-7" d="M182.15,142.9l-1.3,4h-1.73c1.71-5.13,2.56-7.7,4.23-12.85l2,0c1.82,5.1,2.75,7.64,4.62,12.73l-1.79,0-1.45-4Zm4.21-1.35L185,137.89c-.3-.84-.5-1.59-.7-2.33h0c-.18.76-.38,1.54-.61,2.33l-1.22,3.72Z"/><path class="cls-7" d="M191.63,140.45c0-1.09-.06-2-.14-2.87l1.47,0,.1,1.8h.07a2.78,2.78,0,0,1,2.51-2.07,1.76,1.76,0,0,1,.48,0l0,1.58a2,2,0,0,0-.57,0,2.35,2.35,0,0,0-2.21,2.2,5.74,5.74,0,0,0-.06.77c.05,2,.07,2.95.11,4.91l-1.67,0C191.71,144.24,191.68,143,191.63,140.45Z"/><path class="cls-7" d="M200.21,134.72l.08,2.64,2.4-.07,0,1.27-2.41.07.15,5c0,1.14.38,1.78,1.32,1.75a3.71,3.71,0,0,0,1-.15c.05.5.07.75.12,1.25a4,4,0,0,1-1.5.28,2.45,2.45,0,0,1-1.84-.65,3.5,3.5,0,0,1-.72-2.38c-.06-2-.08-3-.14-5l-1.43,0,0-1.27,1.44,0c0-.88,0-1.32-.07-2.21Z"/><path class="cls-7" d="M206.36,134.58a1,1,0,0,1-2.08.07,1,1,0,0,1,1-1.08A1,1,0,0,1,206.36,134.58Zm-1.48,11.84-.3-9.19,1.68-.06c.12,3.68.19,5.51.31,9.19Z"/><path class="cls-7" d="M216,145.65a6.18,6.18,0,0,1-2.65.65,4.38,4.38,0,0,1-4.8-4.51,4.7,4.7,0,0,1,4.78-5.08,5.61,5.61,0,0,1,2.34.38c-.13.52-.19.78-.32,1.31a4,4,0,0,0-2-.36,3.2,3.2,0,0,0-3.13,3.61,3.15,3.15,0,0,0,3.36,3.3,4.66,4.66,0,0,0,2-.54C215.8,144.91,215.87,145.16,216,145.65Z"/><path class="cls-7" d="M217.39,132.43l1.67-.07c.26,5.39.38,8.08.63,13.47l-1.69.08C217.76,140.52,217.64,137.82,217.39,132.43Z"/><path class="cls-7" d="M223.27,141.36a3,3,0,0,0,3.34,3,6.12,6.12,0,0,0,2.55-.61l.35,1.18a7.42,7.42,0,0,1-3.06.73,4.27,4.27,0,0,1-4.8-4.39c-.13-2.77,1.4-5,4.09-5.17,3-.16,3.95,2.43,4,4.11a6.14,6.14,0,0,1,0,.78Zm4.87-1.45a2.39,2.39,0,0,0-2.47-2.59,2.79,2.79,0,0,0-2.45,2.84Z"/><path class="cls-7" d="M231.84,143.48a4.41,4.41,0,0,0,2.27.54c1.22-.08,1.76-.72,1.72-1.48s-.56-1.21-1.83-1.58c-1.69-.5-2.54-1.36-2.6-2.45-.09-1.48,1-2.77,3-2.89a4.72,4.72,0,0,1,2.3.43c-.14.5-.21.75-.34,1.24a3.74,3.74,0,0,0-1.93-.41c-1,.06-1.51.66-1.47,1.34s.62,1.07,1.85,1.45c1.65.51,2.52,1.25,2.61,2.62.1,1.61-1.1,2.83-3.31,3a5.38,5.38,0,0,1-2.65-.47Z"/><path class="cls-7" d="M153.22,201.5a8.46,8.46,0,0,1-3.51.45c-3.72-.18-6.37-2.64-6.11-6.83a6.44,6.44,0,0,1,7.1-6.34,7.17,7.17,0,0,1,3,.7l-.45,1.33a6.19,6.19,0,0,0-2.57-.64c-3-.14-5.13,1.65-5.32,5-.19,3.12,1.55,5.25,4.75,5.4a6.74,6.74,0,0,0,2.79-.41Z"/><path class="cls-7" d="M163.72,197.54a4.53,4.53,0,0,1-4.8,4.78,4.4,4.4,0,0,1-4.37-4.88,4.54,4.54,0,0,1,4.78-4.73A4.41,4.41,0,0,1,163.72,197.54Zm-7.45-.09c-.06,2,1.08,3.57,2.76,3.61s2.9-1.43,2.94-3.5c0-1.56-.71-3.54-2.71-3.6S156.33,195.7,156.27,197.45Z"/><path class="cls-7" d="M173.73,199.75c0,.95,0,1.79.1,2.51H172.3l-.1-1.51h0a3.54,3.54,0,0,1-3.13,1.71c-1.49,0-3.27-.82-3.23-4.05l.06-5.38,1.69,0c0,2,0,3.06,0,5.09,0,1.75.53,2.93,2.09,2.94a2.47,2.47,0,0,0,2.26-1.52,2.35,2.35,0,0,0,.16-.86l0-5.64h1.69C173.71,195.74,173.71,197.08,173.73,199.75Z"/><path class="cls-7" d="M176.53,195.9c0-1.08-.05-2-.12-2.86l1.48,0c0,.72.05,1.08.09,1.8h.07a2.82,2.82,0,0,1,2.54-2.07,1.82,1.82,0,0,1,.48.05l0,1.58a2.42,2.42,0,0,0-.57,0,2.38,2.38,0,0,0-2.24,2.19,4.67,4.67,0,0,0-.06.78c0,2,.05,2.94.08,4.9l-1.7,0C176.58,199.7,176.56,198.43,176.53,195.9Z"/><path class="cls-7" d="M182.73,200.4A4.55,4.55,0,0,0,185,201c1.25,0,1.81-.67,1.78-1.43s-.54-1.22-1.81-1.63c-1.69-.54-2.52-1.42-2.55-2.52,0-1.49,1.14-2.73,3.13-2.8a4.65,4.65,0,0,1,2.3.49l-.37,1.23a3.66,3.66,0,0,0-1.93-.46c-1,0-1.54.62-1.51,1.3s.59,1.09,1.82,1.5c1.65.55,2.51,1.31,2.57,2.68.07,1.61-1.18,2.81-3.43,2.88a5.52,5.52,0,0,1-2.68-.55C182.5,201.17,182.57,200.91,182.73,200.4Z"/><path class="cls-7" d="M191.52,197.48a3,3,0,0,0,3.39,3,6.27,6.27,0,0,0,2.59-.62l.37,1.17a7.75,7.75,0,0,1-3.12.76,4.3,4.3,0,0,1-4.86-4.41c-.12-2.77,1.43-5,4.13-5.16,3-.16,4,2.41,4.1,4.1a6.14,6.14,0,0,1,0,.78C195.47,197.28,194.16,197.36,191.52,197.48Zm4.93-1.46a2.4,2.4,0,0,0-2.5-2.58,2.8,2.8,0,0,0-2.47,2.85C193.47,196.19,194.46,196.14,196.45,196Z"/><text class="cls-8" transform="translate(318.67 70.19)"><tspan class="cls-9">C</tspan><tspan x="6.83" y="0">onne</tspan><tspan class="cls-10" x="32.75" y="0">c</tspan><tspan class="cls-11" x="38.28" y="0">t with </tspan><tspan class="cls-12" x="69.61" y="0">y</tspan><tspan class="cls-13" x="75.14" y="0">our audien</tspan><tspan class="cls-14" x="129.45" y="0">c</tspan><tspan x="134.76" y="0">e with social media. </tspan><tspan class="cls-15" x="235.22" y="0">L</tspan><tspan x="240.72" y="0">ead the </tspan><tspan class="cls-14" x="281.01" y="0">t</tspan><tspan x="284.91" y="0">o </tspan><tspan class="cls-16" x="294.04" y="0">y</tspan><tspan x="299.58" y="0">our </tspan><tspan class="cls-16" x="0" y="14.4">w</tspan><tspan class="cls-11" x="8.71" y="14.4">ebsi</tspan><tspan class="cls-17" x="29.11" y="14.4">t</tspan><tspan class="cls-18" x="33.01" y="14.4">e</tspan><tspan x="38.88" y="14.4">, a</tspan><tspan class="cls-19" x="49.69" y="14.4">r</tspan><tspan class="cls-11" x="53.9" y="14.4">ticles or </tspan><tspan class="cls-16" x="95.25" y="14.4">y</tspan><tspan x="100.79" y="14.4">our </tspan><tspan class="cls-14" x="120.45" y="14.4">c</tspan><tspan x="125.76" y="14.4">ourse </tspan><tspan class="cls-20" x="156.19" y="14.4">o</tspan><tspan class="cls-16" x="162.69" y="14.4">v</tspan><tspan class="cls-21" x="168.35" y="14.4">e</tspan><tspan class="cls-22" x="174.36" y="14.4">r</tspan><tspan x="178.58" y="14.4">vie</tspan><tspan class="cls-23" x="193.17" y="14.4">w</tspan><tspan class="cls-21" x="201.54" y="14.4">. </tspan></text><text class="cls-8" transform="translate(290.89 129.32)"><tspan class="cls-24">S</tspan><tspan class="cls-11" x="5.99" y="0">ell </tspan><tspan class="cls-12" x="20.21" y="0">y</tspan><tspan x="25.74" y="0">our audien</tspan><tspan class="cls-25" x="80.05" y="0">c</tspan><tspan x="85.35" y="0">e on w</tspan><tspan class="cls-26" x="118.53" y="0">h</tspan><tspan class="cls-27" x="125.04" y="0">y they should take </tspan><tspan class="cls-28" x="218.77" y="0">y</tspan><tspan class="cls-21" x="224.3" y="0">our </tspan><tspan class="cls-17" x="243.97" y="0">c</tspan><tspan class="cls-21" x="249.27" y="0">ours</tspan><tspan class="cls-29" x="271.15" y="0">e</tspan><tspan class="cls-21" x="277.02" y="0">. </tspan></text><text class="cls-8" transform="translate(264.7 188.44)">H<tspan class="cls-30" x="7.82" y="0">a</tspan><tspan class="cls-16" x="13.51" y="0">v</tspan><tspan class="cls-11" x="19.16" y="0">e a fanstastic </tspan><tspan class="cls-17" x="85.95" y="0">c</tspan><tspan x="91.26" y="0">ourse </tspan><tspan class="cls-20" x="121.69" y="0">o</tspan><tspan class="cls-31" x="128.19" y="0">v</tspan><tspan x="133.85" y="0">e</tspan><tspan class="cls-32" x="139.86" y="0">r</tspan><tspan x="144.08" y="0">view si</tspan><tspan class="cls-17" x="177.61" y="0">t</tspan><tspan class="cls-29" x="181.51" y="0">e</tspan><tspan x="187.38" y="0">. </tspan><tspan class="cls-33" x="192.4" y="0">S</tspan><tspan x="198.39" y="0">ee s</tspan><tspan class="cls-14" x="217.71" y="0">t</tspan><tspan x="221.61" y="0">ep 6 on h</tspan><tspan class="cls-20" x="268.15" y="0">o</tspan><tspan x="274.65" y="0">w </tspan><tspan class="cls-17" x="286.03" y="0">t</tspan><tspan x="289.93" y="0">o </tspan><tspan class="cls-34" x="299.06" y="0">f</tspan><tspan x="302.41" y="0">o</tspan><tspan class="cls-35" x="309" y="0">r</tspan><tspan x="312.97" y="0">m</tspan><tspan class="cls-36" x="322.98" y="0">a</tspan><tspan x="328.71" y="0">t</tspan><tspan class="cls-16" x="0" y="14.4">y</tspan><tspan class="cls-11" x="5.53" y="14.4">our </tspan><tspan class="cls-20" x="25.2" y="14.4">o</tspan><tspan class="cls-12" x="31.7" y="14.4">v</tspan><tspan x="37.36" y="14.4">e</tspan><tspan class="cls-22" x="43.37" y="14.4">r</tspan><tspan x="47.59" y="14.4">view si</tspan><tspan class="cls-25" x="81.12" y="14.4">t</tspan><tspan x="85.02" y="14.4">e </tspan><tspan class="cls-17" x="93.57" y="14.4">t</tspan><tspan class="cls-21" x="97.47" y="14.4">o get the most out of i</tspan><tspan class="cls-37" x="208.05" y="14.4">t</tspan><tspan x="211.99" y="14.4">. </tspan></text></svg>